<svg xmlns="http://www.w3.org/2000/svg" viewBox="0 0 24 24">
  <path d="M7.157 22.201A1.784 1.784 0 0 1 5.374 24a1.784 1.784 0 0 1-1.783-1.799 1.784 1.784 0 0 1 1.783-1.784 1.784 1.784 0 0 1 1.783 1.784zM20.096 1.029A1.029 1.029 0 0 1 19.067 0a1.029 1.029 0 0 1-1.029 1.029A1.029 1.029 0 0 1 19.067 2.057a1.029 1.029 0 0 1 1.029-1.028zM4.875 3.281a1.354 1.354 0 0 1-1.354 1.354A1.354 1.354 0 0 1 2.167 3.28a1.354 1.354 0 0 1 1.354-1.354 1.354 1.354 0 0 1 1.354 1.354z" fill="#767677"/>
  <path d="M11.978 4.107C6.37 4.107 1.822 7.338 1.822 11.33c0 2.326 1.659 4.39 4.238 5.75a13.678 13.678 0 0 1-.455-3.495c0-5.353 2.75-10.004 6.787-12.345a10.52 10.52 0 0 0-.414-.133zm.044 15.785c5.608 0 10.156-3.23 10.156-7.223 0-2.332-1.666-4.4-4.254-5.76.286 1.107.44 2.268.44 3.453 0 5.372-2.764 10.036-6.817 12.374.16-.28.314-.563.475-.844z" fill="#F37726"/>
</svg>
