<svg xmlns="http://www.w3.org/2000/svg" viewBox="0 0 24 24">
  <path d="M17.13 2c-.88 0-1.74.18-2.52.5A5.6 5.6 0 0 0 12 2c-.92 0-1.79.18-2.57.5C8.6 2.18 7.74 2 6.87 2 3.63 2 1 4.63 1 7.87c0 1.7.71 3.23 1.84 4.32.04.6.13 1.17.27 1.7.6 2.26 2.2 3.9 4.14 4.44.6 1.53 1.7 2.67 3.24 2.67h2.98c1.55 0 2.65-1.14 3.25-2.67 1.94-.54 3.54-2.18 4.13-4.44.14-.53.23-1.1.27-1.7A6.87 6.87 0 0 0 23 7.87C23 4.63 20.37 2 17.13 2zm-7.06 15.5c-.4-.9-.63-2-.63-3.17v-.77c.37.28.78.5 1.2.64.14.7.3 1.38.48 2.02-.38.46-.71.9-1.05 1.28zm3.93 1.5h-2.98c-.7 0-1.3-.55-1.73-1.43.4-.43.8-.92 1.2-1.47.5.07 1.01.1 1.51.1.5 0 1.01-.03 1.51-.1.4.55.8 1.04 1.2 1.47-.43.88-1.03 1.43-1.71 1.43zm.55-2.78c.18-.64.34-1.32.48-2.02.42-.14.83-.36 1.2-.64v.77c0 1.17-.23 2.27-.63 3.17-.34-.38-.67-.82-1.05-1.28zM12 7.5a4.5 4.5 0 1 1 0 9 4.5 4.5 0 0 1 0-9z" fill="#336791"/>
  <circle cx="12" cy="12" r="3" fill="#ffffff" opacity="0.9"/>
</svg>
